<?xml version="1.0" encoding="UTF-8" standalone="no"?>
<svg
   height="128px"
   viewBox="0 0 128 128"
   width="128px"
   version="1.1"
   id="svg45"
   sodipodi:docname="io.github.qwertzuiopy.Questscribe.svg"
   inkscape:export-filename="../../../app.drey.Biblioteca.png"
   inkscape:export-xdpi="96"
   inkscape:export-ydpi="96"
   inkscape:version="1.3.1 (91b66b0783, 2023-11-16)"
   xml:space="preserve"
   xmlns:inkscape="http://www.inkscape.org/namespaces/inkscape"
   xmlns:sodipodi="http://sodipodi.sourceforge.net/DTD/sodipodi-0.dtd"
   xmlns="http://www.w3.org/2000/svg"
   xmlns:svg="http://www.w3.org/2000/svg"><defs
     id="defs45" /><sodipodi:namedview
     id="namedview45"
     pagecolor="#505050"
     bordercolor="#ffffff"
     borderopacity="1"
     inkscape:showpageshadow="0"
     inkscape:pageopacity="0"
     inkscape:pagecheckerboard="1"
     inkscape:deskcolor="#d1d1d1"
     inkscape:current-layer="svg45"
     inkscape:zoom="4"
     inkscape:cx="80.125"
     inkscape:cy="73.875"
     inkscape:window-width="1920"
     inkscape:window-height="1011"
     inkscape:window-x="0"
     inkscape:window-y="0"
     inkscape:window-maximized="1" /><filter
     id="a"
     height="1"
     width="1"
     x="0"
     y="0"><feColorMatrix
       color-interpolation-filters="sRGB"
       values="0 0 0 0 1 0 0 0 0 1 0 0 0 0 1 0 0 0 1 0"
       id="feColorMatrix1" /></filter><linearGradient
     id="b"
     gradientUnits="userSpaceOnUse"
     x1="12.00015"
     x2="28.00015"
     y1="72.00001"
     y2="72.00001"><stop
       offset="0"
       stop-color="#c64600"
       id="stop1"
       style="stop-color:#c01c28;stop-opacity:1;" /><stop
       offset="0.5"
       stop-color="#ff8a21"
       id="stop2"
       style="stop-color:#ed333b;stop-opacity:1;" /><stop
       offset="1"
       stop-color="#e66100"
       id="stop3"
       style="stop-color:#c01c28;stop-opacity:1;" /></linearGradient><linearGradient
     id="c"
     gradientUnits="userSpaceOnUse"
     x1="108.00015"
     x2="116.00015"
     y1="106"
     y2="106"><stop
       offset="0"
       stop-color="#c0bfbc"
       id="stop4" /><stop
       offset="0.5"
       stop-color="#f6f5f4"
       id="stop5" /><stop
       offset="1"
       stop-color="#c0bfbc"
       id="stop6" /></linearGradient><linearGradient
     id="d"
     gradientTransform="matrix(-0 -1 1 -0 300.000153 100.000031)"
     gradientUnits="userSpaceOnUse"
     x1="-20.006874"
     x2="-13.146549"
     y1="-272.836212"
     y2="-281.372711"><stop
       offset="0.06984127"
       stop-color="#c64600"
       id="stop7"
       style="stop-color:#a51d2d;stop-opacity:1;" /><stop
       offset="0.5142867"
       stop-color="#c64600"
       id="stop8"
       style="stop-color:#c01c28;stop-opacity:1;" /><stop
       offset="1"
       stop-color="#8a3000"
       id="stop9"
       style="stop-color:#a51d2d;stop-opacity:1;" /></linearGradient><linearGradient
     id="e"
     gradientTransform="matrix(0.940909 0 0 0.94091 1.22389 -151.28096)"
     gradientUnits="userSpaceOnUse"
     x1="18.367126"
     x2="21.996468"
     y1="280.538696"
     y2="286.82489"><stop
       offset="0"
       stop-color="#c64600"
       id="stop10"
       style="stop-color:#c01c28;stop-opacity:1;" /><stop
       offset="1"
       stop-color="#ff7800"
       id="stop11"
       style="stop-color:#ed333b;stop-opacity:1;" /></linearGradient><mask
     id="f"><g
       filter="url(#a)"
       id="g11"><rect
         fill-opacity="0.302558"
         height="153.6"
         width="153.6"
         x="-12.8"
         y="-12.8"
         id="rect11" /></g></mask><clipPath
     id="g"><rect
       height="152"
       width="192"
       id="rect12" /></clipPath><mask
     id="h"><g
       filter="url(#a)"
       id="g13"><rect
         fill-opacity="0.302558"
         height="153.6"
         width="153.6"
         x="-12.8"
         y="-12.8"
         id="rect13" /></g></mask><clipPath
     id="i"><rect
       height="152"
       width="192"
       id="rect14" /></clipPath><path
     d="m 20 108 h 60 c 4.417969 0 8 3.582031 8 8 s -3.582031 8 -8 8 h -60 c -4.417969 0 -8 -3.582031 -8 -8 s 3.582031 -8 8 -8 z m 0 0"
     fill="#c64600"
     id="path14"
     style="fill:#a51d2d;fill-opacity:1" /><path
     d="m 20 12 c 4.433594 0 8 3.566406 8 8 v 96 h -16 v -96 c 0 -4.433594 3.566406 -8 8 -8 z m 0 0"
     fill="url(#b)"
     id="path15" /><g
     fill="#f6f5f4"
     id="g18"><path
       d="m 28 40 h 18 v 76 h -18 z m 0 0"
       id="path16" /><path
       d="m 36 92 h 72 c 4.417969 0 8 3.582031 8 8 s -3.582031 8 -8 8 h -72 c -4.417969 0 -8 -3.582031 -8 -8 s 3.582031 -8 8 -8 z m 0 0"
       id="path17" /><path
       d="m 28 20 h 88 v 80 h -88 z m 0 0"
       id="path18" /></g><path
     d="m 36 12 h 72 c 4.417969 0 8 3.582031 8 8 s -3.582031 8 -8 8 h -72 c -4.417969 0 -8 -3.582031 -8 -8 s 3.582031 -8 8 -8 z m 0 0"
     fill="#f6f5f4"
     id="path21" /><path
     d="m 36 92 h 72 c 4.417969 0 8 3.582031 8 8 s -3.582031 8 -8 8 h -72 c -4.417969 0 -8 -3.582031 -8 -8 s 3.582031 -8 8 -8 z m 0 0"
     fill="#f6f5f4"
     id="path22" /><path
     d="m 116 100 c 0 4.433594 -3.566406 8 -8 8 h -72 c -4.417969 0 -8 3.582031 -8 8 h 80 c 4.417969 0 8 -3.582031 8 -8 z m 0 0"
     fill="url(#c)"
     id="path23" /><path
     d="m 20 108 c 4.417969 0 8 3.582031 8 8 s -3.582031 8 -8 8 s -8 -3.582031 -8 -8 s 3.582031 -8 8 -8 z m 0 0"
     fill="url(#d)"
     id="path24" /><path
     d="m 20 107.875 c -4.53125 0 -8 3.488281 -8 8.125 c 0 4 3 8 8 8 v -2 c -3.523438 0 -6 -2.617188 -6 -6 c 0 -3.652344 2.414062 -6.09375 6.011719 -6.167969 c 3.382812 0 5.988281 2.660157 5.988281 6.042969 h 2 c 0 -5 -3.984375 -8 -8 -8 z m 0 0"
     fill="url(#e)"
     id="path25" /><path
     d="m 19.683594 122 h 60.316406 c 3.894531 0 8 -2.179688 8 -6 c 0 4.1875 -3.257812 8 -8 8 h -60.316406 z m 0 0"
     fill="#ff7800"
     id="path26"
     style="fill:#ed333b;fill-opacity:1" /><g
     mask="url(#f)"
     id="g43"><g
       clip-path="url(#g)"
       transform="matrix(1 0 0 1 -8 -16)"
       id="g42"><path
         d="m 168.46875 26 c -0.054688 0.003906 -0.109375 0.011719 -0.164062 0.03125 c -0.011719 0.007812 -0.027344 0.015625 -0.042969 0.019531 c -0.050781 0.023438 -0.097657 0.054688 -0.136719 0.09375 l -0.003906 0.003907 h -0.003906 c -0.035157 0.039062 -0.066407 0.085937 -0.089844 0.140624 c -0.007813 0.011719 -0.015625 0.027344 -0.019532 0.046876 c -0.019531 0.050781 -0.03125 0.105468 -0.035156 0.160156 v 0.003906 v 0.003906 c 0.003906 0.054688 0.015625 0.113282 0.035156 0.164063 c 0.007813 0.015625 0.011719 0.03125 0.019532 0.046875 c 0.023437 0.046875 0.050781 0.09375 0.089844 0.136718 l 0.003906 0.003907 l 2.0625 2.03125 c 0.199218 0.195312 0.480468 0.171875 0.675781 -0.027344 c 0.195313 -0.195313 0.140625 -0.589844 0.140625 -0.859375 v -1 h 5 v 1 c 0 0.21875 -0.050781 0.6875 0.144531 0.882812 c 0.195313 0.195313 0.511719 0.199219 0.707031 0.003907 l 2.0625 -2.03125 c 0.195313 -0.195313 0.199219 -0.511719 0.003907 -0.707031 c -0.097657 -0.097657 -0.234375 -0.152344 -0.375 -0.144532 c -0.015625 -0.003906 -0.027344 -0.003906 -0.042969 -0.003906 z m 0 0"
         id="path42" /></g></g><g
     mask="url(#h)"
     id="g45"><g
       clip-path="url(#i)"
       transform="matrix(1 0 0 1 -8 -16)"
       id="g44"><path
         d="m 181 24.527344 c 0.003906 0.054687 0.015625 0.109375 0.035156 0.164062 c 0.003906 0.011719 0.011719 0.027344 0.019532 0.042969 c 0.023437 0.050781 0.054687 0.09375 0.089843 0.136719 l 0.003907 0.003906 v 0.003906 c 0.042968 0.039063 0.089843 0.070313 0.140624 0.089844 c 0.011719 0.007812 0.03125 0.015625 0.046876 0.019531 c 0.050781 0.023438 0.105468 0.035157 0.160156 0.035157 h 0.003906 c 0.058594 0 0.113281 -0.011719 0.167969 -0.03125 c 0.015625 -0.007813 0.03125 -0.015626 0.042969 -0.019532 c 0.050781 -0.023437 0.09375 -0.054687 0.136718 -0.089844 l 0.007813 -0.003906 v -0.003906 l 2.03125 -2.0625 c 0.195312 -0.195312 0.171875 -0.476562 -0.027344 -0.671875 c -0.195313 -0.195313 -0.589844 -0.140625 -0.859375 -0.140625 h -1 v -3 h 1 c 0.21875 0 0.6875 0.050781 0.882812 -0.144531 c 0.195313 -0.195313 0.199219 -0.511719 0.003907 -0.707031 l -2.03125 -2.0625 c -0.195313 -0.195313 -0.511719 -0.199219 -0.707031 -0.003907 c -0.097657 0.097657 -0.152344 0.234375 -0.144532 0.375 c -0.003906 0.015625 -0.003906 0.027344 -0.003906 0.042969 v 8.027344 h -0.003906 z m 0 0"
         id="path43" /></g></g><path
     style="fill:#a51d2d;fill-opacity:1;stroke-width:0.244179"
     d="M 61.381102,73.512832 C 60.931496,73.383638 60.527039,73.156531 60.153255,72.823385 59.763499,72.475997 55.987087,68.121345 48.337572,59.19849 47.583623,58.319039 46.106617,56.602215 45.055336,55.383327 44.004052,54.164439 43.06166,53.061453 42.96113,52.93225 c -0.516651,-0.664016 -0.817448,-1.840624 -0.685787,-2.682561 0.06916,-0.442223 0.09529,-0.527343 1.825724,-5.947165 0.689659,-2.160056 2.002292,-6.288005 2.916959,-9.173222 3.097967,-9.772189 3.221905,-10.151043 3.494426,-10.681784 0.346307,-0.674445 0.845034,-1.175724 1.483481,-1.491065 0.536995,-0.265234 0.296018,-0.208626 7.169007,-1.684045 2.607495,-0.559748 6.609208,-1.421883 8.892696,-1.915857 9.28152,-2.007816 9.304484,-2.012416 10.042853,-2.011478 0.722243,9.07e-4 1.362515,0.220537 1.973523,0.67694 0.278479,0.208015 3.013223,3.352505 11.258312,12.945144 1.811937,2.108075 3.838562,4.45931 4.503606,5.224966 0.665059,0.765654 1.321614,1.540359 1.459048,1.721563 0.693559,0.914507 0.958509,2.036308 0.719973,3.048357 -0.09177,0.38941 -0.698556,2.318279 -2.718688,8.642434 -0.70477,2.206343 -2.168119,6.799715 -3.251884,10.207495 -1.462319,4.598088 -2.030411,6.31114 -2.202839,6.642571 -0.524903,1.008934 -1.369103,1.607956 -2.736145,1.941504 -0.262294,0.06399 -2.193717,0.481393 -4.292057,0.927539 -3.397131,0.722297 -6.282802,1.342396 -14.924019,3.207022 -4.631096,0.999301 -5.090968,1.087348 -5.656608,1.082956 -0.308171,-0.0023 -0.650165,-0.04286 -0.851609,-0.100732 z"
     id="path34" /><path
     style="fill:#ffffff;fill-opacity:1;stroke-width:1.044;stroke:none;stroke-opacity:1;stroke-dasharray:none;stroke-linejoin:bevel;stroke-linecap:round"
     d="M 62.098189,70.693555 C 61.857718,70.504401 59.702647,68.017786 51.234251,58.158258 49.06092,55.627907 46.843948,53.052673 46.307649,52.435514 c -0.5363,-0.617159 -1.023147,-1.215778 -1.081882,-1.330266 -0.170525,-0.332399 -0.136234,-0.660011 0.169417,-1.618629 0.151913,-0.476448 0.844371,-2.646209 1.538793,-4.821693 0.694424,-2.175485 2.086629,-6.555908 3.093792,-9.734275 2.393444,-7.553143 2.81993,-8.867361 2.981214,-9.186621 0.105942,-0.209712 0.195871,-0.297066 0.425733,-0.413546 0.30994,-0.157058 0.247141,-0.142903 8.431707,-1.900631 2.499491,-0.536795 6.248729,-1.345165 8.331639,-1.79638 6.712011,-1.454005 6.786606,-1.469322 7.529936,-1.54617 0.424724,-0.04391 0.571576,-0.04045 0.66619,0.01566 0.120314,0.07136 3.743276,4.249711 10.716275,12.359052 1.990044,2.314346 4.167845,4.839085 4.839564,5.610534 1.216754,1.397393 1.495433,1.787372 1.495433,2.092625 0,0.1772 -0.304283,1.150802 -3.019561,9.661442 -1.018954,3.193796 -2.448603,7.687833 -3.176981,9.986749 -0.728379,2.298915 -1.405755,4.405608 -1.505287,4.68154 -0.382891,1.06147 -0.300528,1.023731 -3.911973,1.792603 -3.251251,0.692191 -8.775336,1.879012 -13.212805,2.838707 -8.557285,1.850697 -8.23565,1.791537 -8.520664,1.567342 z m 5.519029,-3.921561 c 0.848592,-0.184056 3.183976,-0.687391 5.189742,-1.118524 5.588915,-1.201318 5.897941,-1.272856 6.090311,-1.409836 0.205428,-0.146274 0.204236,-0.324503 -0.0029,-0.431012 -0.07715,-0.03967 -2.690251,-0.579631 -5.806902,-1.19991 -4.482914,-0.892197 -5.723214,-1.121156 -5.937469,-1.096064 -0.583615,0.06835 -1.180529,0.481526 -1.446837,1.001472 -0.173671,0.339074 -0.94639,3.321484 -0.94691,3.654722 -7.28e-4,0.461385 0.197558,0.763276 0.598993,0.911996 0.282478,0.10465 0.433137,0.08381 2.261954,-0.312844 z m -5.442217,-1.227476 c 0.25609,-0.187154 0.391236,-0.544312 0.791802,-2.092525 0.359233,-1.388469 0.394837,-1.574872 0.373708,-1.956579 -0.01728,-0.312416 -0.06464,-0.508968 -0.18248,-0.757421 -0.08752,-0.184537 -0.156594,-0.360769 -0.153496,-0.391627 0.0059,-0.05882 -0.529914,-0.476713 -0.913692,-0.712603 -0.123433,-0.07586 -2.210766,-1.139507 -4.638523,-2.363645 -3.892308,-1.962605 -4.44444,-2.225707 -4.670768,-2.225707 -0.291446,0 -0.304361,0.03119 -0.151005,0.364686 0.08154,0.177329 6.625105,7.852948 8.245917,9.672489 0.539285,0.605405 0.918566,0.740618 1.298537,0.462932 z m 22.021645,-3.518821 c 0.456608,-0.309861 0.623756,-0.705428 0.564128,-1.335036 -0.280215,-2.958726 -1.392059,-13.952773 -1.432776,-14.167477 -0.106177,-0.559863 -0.312711,-0.792257 -0.704103,-0.792257 -0.426429,0 0.370138,-0.701627 -9.620895,8.47421 -2.237383,2.054829 -4.137256,3.818398 -4.221943,3.919041 -0.183969,0.218636 -0.234472,0.391252 -0.187587,0.641167 0.04229,0.22541 0.326587,0.507628 0.594698,0.590345 0.108001,0.03332 2.001556,0.416223 4.207899,0.850895 2.206342,0.434672 5.324396,1.052337 6.929008,1.372591 3.235364,0.645723 3.528254,0.679503 3.871571,0.446521 z m -21.311833,-5.15933 c 0.06639,-0.04292 0.165252,-0.19467 0.219697,-0.337232 l 0.09899,-0.259203 -1.755078,-8.621796 c -0.965294,-4.741988 -1.804979,-8.78387 -1.865968,-8.98196 -0.0673,-0.218599 -0.176061,-0.425336 -0.276695,-0.52597 -0.146477,-0.146477 -0.194827,-0.162533 -0.414791,-0.137739 -0.13694,0.01544 -0.31127,0.06888 -0.387397,0.118755 -0.07613,0.04989 -1.546586,1.801405 -3.267686,3.892277 -1.721099,2.090872 -3.680614,4.468414 -4.354477,5.283424 -1.512293,1.829064 -1.659427,2.093584 -1.494168,2.686223 0.14266,0.511589 0.432945,0.719143 2.381381,1.702686 0.955957,0.482555 2.684884,1.356982 3.842056,1.943171 6.768233,3.428588 6.721778,3.406432 7.013166,3.344974 0.07715,-0.01627 0.194582,-0.0647 0.26097,-0.10761 z m 24.332063,0.03963 c 0.120262,-0.132889 0.120542,-0.133711 1.522484,-4.526595 0.659821,-2.067481 1.570266,-4.920437 2.023224,-6.339902 0.870619,-2.728327 0.922054,-2.961948 0.732741,-3.328035 -0.142477,-0.275518 -0.392308,-0.402606 -0.790761,-0.402244 -0.403851,3.67e-4 -3.644263,0.66938 -4.012478,0.828412 -0.350129,0.151221 -0.85481,0.707399 -1.004196,1.106661 -0.06486,0.173353 -0.116963,0.445941 -0.116963,0.611883 0,0.332658 1.102245,11.460127 1.158469,11.695045 0.101424,0.423816 0.296513,0.565792 0.48748,0.354775 z M 66.75517,56.563655 c 0.145971,-0.06628 1.456736,-1.227425 3.534635,-3.131159 1.816447,-1.664193 4.716486,-4.320621 6.444531,-5.90317 3.649444,-3.34218 3.927322,-3.607379 4.071879,-3.886083 0.226873,-0.437413 0.07569,-0.904517 -0.371101,-1.146558 -0.181747,-0.09846 -14.332302,-4.817853 -16.885532,-5.631546 -0.957799,-0.305242 -1.220873,-0.273172 -1.567482,0.191074 -0.234265,0.313771 -0.206311,0.479665 1.419259,8.422245 2.033462,9.93558 2.073127,10.126622 2.170535,10.454628 0.192506,0.648238 0.630432,0.88161 1.183276,0.630569 z M 50.790076,43.599695 c 0.144456,-0.153867 1.273496,-1.510914 2.508975,-3.015662 1.235479,-1.504748 2.639897,-3.202982 3.120926,-3.773853 0.950125,-1.127579 1.22558,-1.577985 1.329604,-2.174082 0.07787,-0.446245 -9.07e-4,-0.935409 -0.219537,-1.361817 -0.203847,-0.397716 -1.570251,-2.228541 -1.977567,-2.649714 -0.291335,-0.301248 -0.329167,-0.322606 -0.571434,-0.322606 -0.485458,0 -0.712835,0.313145 -1.079574,1.486791 -0.115709,0.370295 -0.903788,2.844541 -1.751286,5.498322 -1.697227,5.31456 -1.925618,6.065932 -1.925618,6.33504 0,0.360276 0.214189,0.351785 0.565511,-0.02242 z m 37.193379,-3.260627 c 1.895997,-0.395761 2.078396,-0.441675 2.334433,-0.587633 0.4366,-0.248881 0.563715,-0.653253 0.346534,-1.102337 -0.128181,-0.26505 -0.510563,-0.718238 -5.155823,-6.110662 -3.7475,-4.350265 -3.907919,-4.529758 -4.132094,-4.623424 -0.109466,-0.04574 -0.208557,-0.07362 -0.220206,-0.06197 -0.01165,0.01165 -0.0355,0.144531 -0.053,0.29529 -0.02851,0.245699 0.131376,0.8062 1.542676,5.407747 1.913298,6.238298 1.84733,6.037788 2.082831,6.330836 0.445516,0.554389 1.012001,0.818094 1.627594,0.757664 0.169716,-0.01666 0.90189,-0.154136 1.627055,-0.305502 z M 81.471776,39.96177 c 0.265304,-0.142285 0.408985,-0.421521 0.380275,-0.739061 -0.01255,-0.138861 -0.798837,-2.789838 -1.747296,-5.89106 -0.948458,-3.101222 -1.889584,-6.181404 -2.091391,-6.84485 -0.464624,-1.52747 -0.606248,-1.784576 -1.09565,-1.989062 -0.31376,-0.131097 -0.607742,-0.108659 -0.949132,0.07244 -0.248549,0.13185 -11.049203,7.822396 -11.3295,8.06711 -0.04879,0.0426 -0.104465,0.06169 -0.123721,0.04244 -0.055,-0.055 -0.750294,0.523588 -0.878491,0.731017 -0.212531,0.343876 -0.0959,0.740993 0.285641,0.972592 0.185589,0.112653 16.478815,5.532069 16.963619,5.642399 0.234411,0.05336 0.400788,0.03518 0.585646,-0.06396 z M 61.255484,31.932044 c 0.136534,-0.06039 1.889061,-1.284777 3.894508,-2.720846 2.005444,-1.43607 3.661602,-2.607241 3.680351,-2.6026 0.07059,0.01747 2.05027,-1.436954 2.23656,-1.643154 0.322384,-0.356841 0.164955,-0.48694 -0.476104,-0.393452 -0.309801,0.04517 -3.382173,0.699987 -11.093871,2.364412 -0.840353,0.181374 -1.635646,0.377428 -1.767318,0.435674 -0.277595,0.122794 -0.601421,0.46547 -0.610034,0.645544 -0.01309,0.273519 0.02004,0.471403 0.114729,0.685337 0.108347,0.244802 1.742436,2.449071 2.071845,2.794774 0.544108,0.571018 1.273108,0.733439 1.949334,0.434311 z"
     id="path33" /><path
     d="m 42.904699,80.102291 h 32 c 2.210938,0 4,1.789062 4,4 0,2.210938 -1.789062,4 -4,4 h -32 c -2.210938,0 -4,-1.789062 -4,-4 0,-2.210938 1.789062,-4 4,-4 z m 0,0"
     fill="#77767b"
     id="path40" /><path
     d="m 42.904699,92.102291 h 56 c 2.210941,0 4.000001,1.789062 4.000001,4 0,2.210938 -1.78906,3.999999 -4.000001,3.999999 h -56 c -2.210938,0 -4,-1.789061 -4,-3.999999 0,-2.210938 1.789062,-4 4,-4 z m 0,0"
     fill="#c0bfbc"
     id="path41" /></svg>
